<?xml version="1.0" encoding="UTF-8"?> <!-- Generator: Adobe Illustrator 22.0.1, SVG Export Plug-In . SVG Version: 6.00 Build 0) --> <svg xmlns="http://www.w3.org/2000/svg" xmlns:xlink="http://www.w3.org/1999/xlink" id="Layer_1" x="0px" y="0px" viewBox="0 0 300.6 103.4" style="enable-background:new 0 0 300.6 103.4;" xml:space="preserve"> <style type="text/css"> .st0{fill:#414141;} .st1{fill:url(#SVGID_1_);} </style> <g> <g> <path class="st0" d="M123.6,56.9l1.4-0.8c1,1.8,2.1,2.7,3.4,2.7c0.6,0,1.1-0.1,1.6-0.4c0.5-0.3,0.9-0.6,1.1-1 c0.3-0.4,0.4-0.9,0.4-1.4c0-0.6-0.2-1.1-0.6-1.6c-0.5-0.7-1.5-1.6-2.8-2.6c-1.4-1-2.2-1.8-2.6-2.3c-0.6-0.8-0.9-1.6-0.9-2.5 c0-0.7,0.2-1.4,0.5-2c0.3-0.6,0.8-1.1,1.5-1.4s1.3-0.5,2-0.5c0.8,0,1.5,0.2,2.2,0.6c0.7,0.4,1.4,1.1,2.1,2.1l-1.3,1 c-0.6-0.8-1.2-1.4-1.6-1.6c-0.4-0.3-0.9-0.4-1.4-0.4c-0.7,0-1.2,0.2-1.6,0.6c-0.4,0.4-0.6,0.9-0.6,1.5c0,0.4,0.1,0.7,0.2,1 c0.1,0.3,0.4,0.7,0.8,1.1c0.2,0.2,0.9,0.8,2.1,1.6c1.4,1.1,2.4,2,2.9,2.8c0.5,0.8,0.8,1.6,0.8,2.5c0,1.2-0.5,2.2-1.4,3.1 c-0.9,0.9-2,1.3-3.3,1.3c-1,0-1.9-0.3-2.7-0.8C125,59,124.3,58.1,123.6,56.9z"></path> <path class="st0" d="M143.5,43.5l7.7,16.5h-1.8l-2.6-5.4h-7.1l-2.6,5.4h-1.8l7.8-16.5H143.5z M143.3,47l-2.8,6h5.6L143.3,47z"></path> <path class="st0" d="M153.8,43.5h3.3c1.3,0,2.3,0.2,3,0.5s1.3,0.8,1.7,1.4c0.4,0.6,0.6,1.4,0.6,2.1c0,0.7-0.2,1.4-0.5,2 c-0.4,0.6-0.9,1.1-1.6,1.5c0.9,0.3,1.5,0.6,2,1c0.5,0.4,0.8,0.9,1.1,1.4c0.3,0.6,0.4,1.2,0.4,1.8c0,1.3-0.5,2.4-1.5,3.4 s-2.3,1.4-3.9,1.4h-4.5V43.5z M155.4,45.1v5.3h0.9c1.1,0,2-0.1,2.5-0.3c0.5-0.2,1-0.6,1.3-1c0.3-0.5,0.5-1,0.5-1.5 c0-0.8-0.3-1.3-0.8-1.8c-0.5-0.4-1.4-0.6-2.5-0.6H155.4z M155.4,52v6.3h2c1.2,0,2.1-0.1,2.7-0.4c0.6-0.2,1-0.6,1.4-1.1 c0.3-0.5,0.5-1,0.5-1.6c0-0.7-0.2-1.4-0.7-1.9c-0.5-0.5-1.1-0.9-2-1.1c-0.6-0.1-1.5-0.2-2.9-0.2H155.4z"></path> <path class="st0" d="M173.7,43.5l7.7,16.5h-1.8l-2.6-5.4h-7.1l-2.6,5.4h-1.8l7.8-16.5H173.7z M173.5,47l-2.8,6h5.6L173.5,47z"></path> <path class="st0" d="M184,43.5h3.3c1.8,0,3.1,0.1,3.7,0.2c1,0.2,1.8,0.7,2.4,1.4c0.6,0.7,0.9,1.6,0.9,2.7c0,0.9-0.2,1.7-0.6,2.4 c-0.4,0.7-1,1.2-1.8,1.5c-0.8,0.3-1.9,0.5-3.3,0.5l5.9,7.7h-2l-5.9-7.7h-0.9V60H184V43.5z M185.7,45.1v5.6l2.8,0 c1.1,0,1.9-0.1,2.4-0.3c0.5-0.2,0.9-0.5,1.2-1c0.3-0.5,0.4-1,0.4-1.5c0-0.6-0.1-1.1-0.4-1.5c-0.3-0.5-0.7-0.8-1.2-1 c-0.5-0.2-1.3-0.3-2.4-0.3H185.7z"></path> <path class="st0" d="M197,43.5h1.7l3.4,11.9l4.7-11.9h0.3l4.7,11.9l3.4-11.9h1.7L212.2,60h-0.3L207,47.5L202,60h-0.3L197,43.5z"></path> <path class="st0" d="M226.7,43.5l7.7,16.5h-1.8l-2.6-5.4h-7.1l-2.6,5.4h-1.8l7.8-16.5H226.7z M226.5,47l-2.8,6h5.6L226.5,47z"></path> <path class="st0" d="M237,43.5h1.6v14.9h6.4V60h-8V43.5z"></path> <path class="st0" d="M254,43.5h1.6v14.9h6.4V60h-8V43.5z"></path> <path class="st0" d="M271.3,43.5L279,60h-1.8l-2.6-5.4h-7.1L265,60h-1.8l7.8-16.5H271.3z M271.1,47l-2.8,6h5.6L271.1,47z"></path> <path class="st0" d="M280.7,43.5h1.7l3.4,11.9l4.7-11.9h0.3l4.7,11.9l3.4-11.9h1.7L295.9,60h-0.3l-4.9-12.5l-5,12.5h-0.3 L280.7,43.5z"></path> </g> <g> <path class="st0" d="M99.5,31.2c0,0-9.2-14.6-30.2-14.6s-24,0-29.7,0S16,18.7,16,37.8c0,10.6,9.7,20.3,20,20.3s21.2,0,26.6,0 s10.8,2.3,10.8,8s-3.6,8.5-10.6,8.5s-20.3,0-29.7,0S0,60.8,0,39.8S14.2,1.3,37.7,0.4c23.6-0.8,26.7-0.3,31.1,0 C73.1,0.7,95.5,4.6,99.5,31.2z"></path> <linearGradient id="SVGID_1_" gradientUnits="userSpaceOnUse" x1="0" y1="66.142" x2="99.4656" y2="66.142"> <stop offset="5.405406e-03" style="stop-color:#6FC5BF"></stop> <stop offset="1" style="stop-color:#0274B9"></stop> </linearGradient> <path class="st1" d="M0,72.3c0,0,9.2,14.6,30.2,14.6s24,0,29.7,0s23.6-2.1,23.6-21.2c0-10.6-9.7-20.3-20-20.3s-21.2,0-26.6,0 s-10.8-2.3-10.8-8s3.6-8.5,10.6-8.5s20.3,0,29.7,0s33,13.7,33,34.7S85.2,102.1,61.8,103c-23.6,0.8-26.7,0.3-31.1,0S4,98.8,0,72.3z "></path> </g> </g> </svg> 